<svg width="111" height="155" viewBox="0 0 111 155" fill="none" xmlns="http://www.w3.org/2000/svg">
<rect y="1" width="111" height="153" rx="10" fill="#0AA1DD"/>
<path d="M43.4633 11.0832V0.583252H59.9683V3.49992C59.4793 6.31936 58.6112 12.7166 59.0513 15.7499C59.6015 19.5416 59.9683 24.4999 59.9683 28.8749C59.9683 33.2499 56.1171 40.5416 53.7331 43.7499C51.349 46.9582 46.9477 49.5832 45.4805 49.5832C44.3069 49.5832 41.0792 59.3055 39.6121 64.1666L34.2938 72.0416L32.8267 84.2916L18.8891 81.3749L13.0206 90.4166L0 94.4999V75.2499C0.794687 74.4721 2.71416 72.7416 4.03456 72.0416C5.35497 71.3416 6.66314 66.4999 7.15218 64.1666C9.47511 60.0832 14.4144 51.4499 15.5881 49.5832C16.7618 47.7166 20.4785 37.7221 22.1901 32.9582L28.9755 24.4999L34.2938 18.0832L43.4633 11.0832Z" fill="#ECF01D"/>
<path fill-rule="evenodd" clip-rule="evenodd" d="M111 11H100.194V20H94.3319L96.1639 34.0625H90.3016V45.3125C89.4467 47.4688 87.5171 52.2313 86.6377 54.0312C86.5263 54.2594 86.396 54.5193 86.2525 54.8057C84.98 57.3445 82.6632 61.9672 83.157 65C83.7066 68.375 78.5771 90.3125 73.814 90.3125C71.9014 90.3125 70.55 89.5415 69.4752 88.9284C67.8734 88.0146 66.8858 87.4512 65.5702 90.3125C64.1251 93.4555 62.6009 96.1124 61.3097 98.363C60.6367 99.5361 60.027 100.599 59.5248 101.562C58.0592 104.375 53.2961 107.75 51.0978 108.312C49.3391 108.762 44.2585 108.5 41.938 108.312C40.1061 110.938 36.4055 116.863 36.259 119.562C36.0758 122.938 35.343 128.562 34.2438 131.375C33.3645 133.625 29.3586 139.062 27.4656 141.5L29.4807 146.844L26 150.5V155H96.1639L105.507 146.844L111 144.789V11Z" fill="#ECF01D"/>
<rect x="4" y="9" width="49" height="16" rx="8" fill="#FEFEFE"/>
<path d="M10.6864 14.1818V20H9.45632V15.3494H9.42223L8.08984 16.1847V15.0938L9.53018 14.1818H10.6864ZM12.0692 20V19.1136L14.1403 17.196C14.3164 17.0256 14.4641 16.8722 14.5835 16.7358C14.7047 16.5994 14.7965 16.4659 14.859 16.3352C14.9215 16.2027 14.9528 16.0597 14.9528 15.9062C14.9528 15.7358 14.9139 15.589 14.8363 15.4659C14.7586 15.3409 14.6526 15.2453 14.5181 15.179C14.3836 15.1108 14.2312 15.0767 14.0607 15.0767C13.8827 15.0767 13.7274 15.1127 13.5948 15.1847C13.4622 15.2566 13.36 15.3598 13.288 15.4943C13.216 15.6288 13.18 15.7888 13.18 15.9744H12.0124C12.0124 15.5937 12.0986 15.2633 12.271 14.983C12.4433 14.7027 12.6848 14.4858 12.9954 14.3324C13.306 14.179 13.6639 14.1023 14.0692 14.1023C14.4859 14.1023 14.8486 14.1761 15.1573 14.3239C15.4679 14.4697 15.7094 14.6723 15.8817 14.9318C16.0541 15.1913 16.1403 15.4886 16.1403 15.8239C16.1403 16.0436 16.0967 16.2604 16.0096 16.4744C15.9244 16.6884 15.7719 16.9261 15.5522 17.1875C15.3325 17.447 15.0228 17.7585 14.6232 18.1222L13.7738 18.9545V18.9943H16.217V20H12.0692ZM19.6786 19.3239C19.4911 19.3239 19.3301 19.2576 19.1957 19.125C19.0631 18.9924 18.9968 18.8314 18.9968 18.642C18.9968 18.4564 19.0631 18.2973 19.1957 18.1648C19.3301 18.0322 19.4911 17.9659 19.6786 17.9659C19.8604 17.9659 20.0195 18.0322 20.1559 18.1648C20.2923 18.2973 20.3604 18.4564 20.3604 18.642C20.3604 18.767 20.3282 18.8816 20.2638 18.9858C20.2013 19.0881 20.119 19.1705 20.0167 19.233C19.9144 19.2936 19.8017 19.3239 19.6786 19.3239ZM19.6786 16.4688C19.4911 16.4688 19.3301 16.4025 19.1957 16.2699C19.0631 16.1373 18.9968 15.9763 18.9968 15.7869C18.9968 15.6013 19.0631 15.4432 19.1957 15.3125C19.3301 15.1799 19.4911 15.1136 19.6786 15.1136C19.8604 15.1136 20.0195 15.1799 20.1559 15.3125C20.2923 15.4432 20.3604 15.6013 20.3604 15.7869C20.3604 15.9138 20.3282 16.0294 20.2638 16.1335C20.2013 16.2358 20.119 16.3172 20.0167 16.3778C19.9144 16.4384 19.8017 16.4688 19.6786 16.4688ZM23.1062 18.9773V18.0085L25.5352 14.1818H26.3704V15.5227H25.8761L24.3448 17.946V17.9915H27.7965V18.9773H23.1062ZM25.8988 20V18.6818L25.9215 18.2528V14.1818H27.0749V20H25.8988ZM30.7411 20.0795C30.3396 20.0795 29.9817 20.0057 29.6673 19.858C29.3548 19.7102 29.1067 19.5066 28.9229 19.2472C28.7392 18.9877 28.6436 18.6903 28.636 18.3551H29.8292C29.8424 18.5805 29.9371 18.7633 30.1133 18.9034C30.2894 19.0436 30.4987 19.1136 30.7411 19.1136C30.9343 19.1136 31.1048 19.071 31.2525 18.9858C31.4021 18.8987 31.5186 18.7784 31.6019 18.625C31.6871 18.4697 31.7298 18.2917 31.7298 18.0909C31.7298 17.8864 31.6862 17.7064 31.5991 17.5511C31.5138 17.3958 31.3955 17.2746 31.244 17.1875C31.0924 17.1004 30.9192 17.0559 30.7241 17.054C30.5536 17.054 30.3879 17.089 30.2269 17.1591C30.0678 17.2292 29.9438 17.3248 29.8548 17.446L28.761 17.25L29.0366 14.1818H32.5934V15.1875H30.0508L29.9002 16.6449H29.9343C30.0366 16.5009 30.1909 16.3816 30.3974 16.2869C30.6038 16.1922 30.8349 16.1449 31.0906 16.1449C31.4409 16.1449 31.7534 16.2273 32.0281 16.392C32.3027 16.5568 32.5195 16.7831 32.6786 17.071C32.8377 17.357 32.9163 17.6866 32.9144 18.0597C32.9163 18.4517 32.8254 18.8002 32.6417 19.1051C32.4599 19.4081 32.2051 19.6468 31.8775 19.821C31.5517 19.9934 31.1729 20.0795 30.7411 20.0795ZM36.3427 19.3239C36.1552 19.3239 35.9942 19.2576 35.8597 19.125C35.7272 18.9924 35.6609 18.8314 35.6609 18.642C35.6609 18.4564 35.7272 18.2973 35.8597 18.1648C35.9942 18.0322 36.1552 17.9659 36.3427 17.9659C36.5245 17.9659 36.6836 18.0322 36.82 18.1648C36.9563 18.2973 37.0245 18.4564 37.0245 18.642C37.0245 18.767 36.9923 18.8816 36.9279 18.9858C36.8654 19.0881 36.783 19.1705 36.6808 19.233C36.5785 19.2936 36.4658 19.3239 36.3427 19.3239ZM36.3427 16.4688C36.1552 16.4688 35.9942 16.4025 35.8597 16.2699C35.7272 16.1373 35.6609 15.9763 35.6609 15.7869C35.6609 15.6013 35.7272 15.4432 35.8597 15.3125C35.9942 15.1799 36.1552 15.1136 36.3427 15.1136C36.5245 15.1136 36.6836 15.1799 36.82 15.3125C36.9563 15.4432 37.0245 15.6013 37.0245 15.7869C37.0245 15.9138 36.9923 16.0294 36.9279 16.1335C36.8654 16.2358 36.783 16.3172 36.6808 16.3778C36.5785 16.4384 36.4658 16.4688 36.3427 16.4688ZM39.7702 18.9773V18.0085L42.1992 14.1818H43.0344V15.5227H42.5401L41.0089 17.946V17.9915H44.4606V18.9773H39.7702ZM42.5629 20V18.6818L42.5856 18.2528V14.1818H43.739V20H42.5629ZM47.5614 20.1278C47.0728 20.1259 46.6523 20.0057 46.3001 19.767C45.9497 19.5284 45.6798 19.1828 45.4904 18.7301C45.3029 18.2775 45.2101 17.733 45.212 17.0966C45.212 16.4621 45.3058 15.9214 45.4933 15.4744C45.6826 15.0275 45.9525 14.6875 46.3029 14.4545C46.6552 14.2197 47.0747 14.1023 47.5614 14.1023C48.0482 14.1023 48.4667 14.2197 48.8171 14.4545C49.1694 14.6894 49.4402 15.0303 49.6296 15.4773C49.819 15.9223 49.9128 16.4621 49.9109 17.0966C49.9109 17.7348 49.8162 18.2803 49.6268 18.733C49.4393 19.1856 49.1703 19.5312 48.82 19.7699C48.4696 20.0085 48.0501 20.1278 47.5614 20.1278ZM47.5614 19.108C47.8948 19.108 48.1609 18.9403 48.3597 18.6051C48.5586 18.2699 48.6571 17.767 48.6552 17.0966C48.6552 16.6553 48.6097 16.2879 48.5188 15.9943C48.4298 15.7008 48.3029 15.4801 48.1381 15.3324C47.9753 15.1847 47.783 15.1108 47.5614 15.1108C47.23 15.1108 46.9648 15.2765 46.766 15.608C46.5671 15.9394 46.4667 16.4356 46.4648 17.0966C46.4648 17.5436 46.5094 17.9167 46.5984 18.2159C46.6893 18.5133 46.8171 18.7367 46.9819 18.8864C47.1467 19.0341 47.3398 19.108 47.5614 19.108Z" fill="#FF0000"/>
</svg>
