<svg width="874" height="264" viewBox="0 0 874 264" fill="none" xmlns="http://www.w3.org/2000/svg">
<rect x="0.419556" y="1" width="873.58" height="263" rx="10" fill="#0AA1DD"/>
<path d="M99.4421 19V1H137.205V6C136.086 10.8333 134.1 21.8 135.107 27C136.366 33.5 137.205 42 137.205 49.5C137.205 57 128.394 69.5 122.939 75C117.484 80.5 107.414 85 104.058 85C101.372 85 93.9875 101.667 90.6308 110L78.4628 123.5L75.1061 144.5L43.2175 139.5L29.7907 155L0 162V129C1.81821 127.667 6.20989 124.7 9.23092 123.5C12.2519 122.3 15.245 114 16.3639 110C21.6787 103 32.9795 88.2 35.6649 85C38.3503 81.8 46.8539 64.6667 50.77 56.5L66.2948 42L78.4628 31L99.4421 19Z" fill="#ECF01D"/>
<path d="M271.053 16.5V0H405.741L398.188 16.5L390.216 28.875V51.5625L380.566 62.9062L376.37 84.0469C382.943 89.0312 390.3 102.094 367.139 114.469C372.593 117.047 367.139 135.094 361.684 145.406C357.32 153.656 348.957 170.844 345.32 178.406C339.306 181.672 325.935 188.925 320.565 191.812C315.194 194.7 318.327 212.266 320.565 220.688L315.949 239.25L283.221 249.047L261.822 264H101.12V255.75L109.093 249.047L104.477 239.25C108.813 234.781 117.988 224.812 120.002 220.688C122.519 215.531 124.198 205.219 124.617 199.031C124.953 194.081 133.429 183.219 137.625 178.406C142.939 178.75 154.576 179.231 158.604 178.406C163.639 177.375 174.548 171.188 177.905 166.031C181.262 160.875 186.716 154.172 191.751 145.406C196.786 136.641 199.723 145.406 210.633 145.406C221.542 145.406 233.29 105.188 232.032 99C230.773 92.8125 237.486 83.0156 240.004 78.8906C242.018 75.5906 246.437 66.8594 248.396 62.9062V42.2812H261.822L257.626 16.5H271.053Z" fill="#ECF01D"/>
<path d="M541.267 39.4185L594.135 0H654.975V8.29862C651.759 14.6955 644.234 29.0452 639.87 35.2692C634.416 43.0491 624.346 62.7584 623.926 69.501C623.506 76.2436 623.087 99.5835 619.73 105.807C616.373 112.031 601.268 131.741 594.135 138.483C587.002 145.226 571.058 167.528 567.701 171.159C565.016 174.064 563.506 189.658 563.086 197.092L541.267 228.731L513.575 264H397.349L404.482 253.108C406.72 246.365 411.699 232.05 413.713 228.731C416.23 224.582 444.343 212.652 448.958 207.984C453.574 203.316 467.84 194.499 475.392 191.906C482.945 189.312 481.266 167.528 480.427 163.379C479.588 159.23 473.294 135.89 475.392 131.741C477.49 127.591 488.819 112.031 499.309 99.5835C509.798 87.1356 516.512 80.9116 519.029 75.2063C521.043 70.642 529.939 65.0059 534.134 62.7584L541.267 39.4185Z" fill="#ECF01D"/>
<path fill-rule="evenodd" clip-rule="evenodd" d="M868.616 117.622C870.328 116.458 872.184 115.911 874 115.872V260.867C873.263 262.707 871.467 263.991 869.389 264H650.294L660.548 257.58C661.867 256.754 662.973 255.636 663.781 254.306C668.857 245.959 677.43 231.838 678.981 229.2C681.087 225.617 702.148 205.658 709.308 199.517C714.187 195.333 726.885 199.7 736.215 202.909C740.58 204.41 744.208 205.658 745.953 205.658C751.429 205.658 776.701 181.605 779.229 179.046C781.041 177.211 787.5 167.291 791.449 161.077C792.28 159.768 793.397 158.668 794.723 157.863L802.579 153.09C805.368 151.396 808.807 151.169 811.794 152.482L817.356 154.926C822.533 157.201 828.565 154.734 830.665 149.483L832.851 144.013C833.591 142.163 834.866 140.577 836.513 139.456L868.616 117.622Z" fill="#ECF01D"/>
<rect x="759.453" y="21" width="100.701" height="27" rx="13.5" fill="#FEFEFE"/>
<path d="M775.162 29.0909V40H772.856V31.2802H772.792L770.293 32.8462V30.8008L772.994 29.0909H775.162ZM777.755 40V38.3381L781.638 34.7425C781.968 34.4229 782.245 34.1353 782.469 33.8796C782.696 33.6239 782.868 33.3736 782.986 33.1286C783.103 32.88 783.161 32.6119 783.161 32.3242C783.161 32.0046 783.089 31.7294 782.943 31.4986C782.797 31.2642 782.599 31.0849 782.346 30.9606C782.094 30.8327 781.808 30.7688 781.489 30.7688C781.155 30.7688 780.864 30.8363 780.615 30.9712C780.367 31.1062 780.175 31.2997 780.04 31.5518C779.905 31.804 779.838 32.104 779.838 32.4521H777.648C777.648 31.7383 777.81 31.1186 778.133 30.593C778.456 30.0675 778.909 29.6609 779.491 29.3732C780.074 29.0856 780.745 28.9418 781.505 28.9418C782.286 28.9418 782.966 29.0803 783.545 29.3572C784.127 29.6307 784.58 30.0107 784.903 30.4972C785.226 30.9837 785.388 31.5412 785.388 32.1697C785.388 32.5817 785.306 32.9883 785.143 33.3896C784.983 33.7908 784.697 34.2365 784.285 34.7266C783.873 35.2131 783.293 35.7972 782.544 36.479L780.951 38.0398V38.1143H785.532V40H777.755ZM792.022 38.7322C791.671 38.7322 791.369 38.608 791.117 38.3594C790.868 38.1108 790.744 37.8089 790.744 37.4538C790.744 37.1058 790.868 36.8075 791.117 36.5589C791.369 36.3104 791.671 36.1861 792.022 36.1861C792.363 36.1861 792.662 36.3104 792.917 36.5589C793.173 36.8075 793.301 37.1058 793.301 37.4538C793.301 37.6882 793.24 37.9031 793.12 38.0984C793.003 38.2901 792.848 38.4446 792.656 38.5618C792.465 38.6754 792.253 38.7322 792.022 38.7322ZM792.022 33.3789C791.671 33.3789 791.369 33.2546 791.117 33.006C790.868 32.7575 790.744 32.4556 790.744 32.1005C790.744 31.7525 790.868 31.456 791.117 31.2109C791.369 30.9624 791.671 30.8381 792.022 30.8381C792.363 30.8381 792.662 30.9624 792.917 31.2109C793.173 31.456 793.301 31.7525 793.301 32.1005C793.301 32.3384 793.24 32.555 793.12 32.7504C793.003 32.9421 792.848 33.0948 792.656 33.2085C792.465 33.3221 792.253 33.3789 792.022 33.3789ZM798.449 38.0824V36.266L803.003 29.0909H804.569V31.6051H803.643L800.772 36.1488V36.234H807.243V38.0824H798.449ZM803.685 40V37.5284L803.728 36.7241V29.0909H805.89V40H803.685ZM812.765 40.1491C812.012 40.1491 811.341 40.0107 810.751 39.7337C810.165 39.4567 809.7 39.0749 809.356 38.5884C809.011 38.1019 808.832 37.5444 808.818 36.9158H811.055C811.08 37.3384 811.257 37.6811 811.587 37.9439C811.918 38.2067 812.31 38.3381 812.765 38.3381C813.127 38.3381 813.446 38.2582 813.723 38.0984C814.004 37.935 814.222 37.7095 814.379 37.4219C814.538 37.1307 814.618 36.7969 814.618 36.4205C814.618 36.0369 814.537 35.6996 814.373 35.4084C814.213 35.1172 813.992 34.8899 813.707 34.7266C813.423 34.5632 813.098 34.4798 812.733 34.4762C812.413 34.4762 812.102 34.5419 811.8 34.6733C811.502 34.8047 811.27 34.984 811.103 35.2113L809.052 34.8438L809.569 29.0909H816.238V30.9766H811.47L811.188 33.7092H811.252C811.444 33.4393 811.733 33.2156 812.12 33.038C812.507 32.8604 812.94 32.7717 813.42 32.7717C814.077 32.7717 814.663 32.9261 815.178 33.2351C815.693 33.544 816.099 33.9684 816.397 34.5082C816.696 35.0444 816.843 35.6623 816.84 36.3619C816.843 37.0969 816.673 37.7504 816.328 38.3221C815.987 38.8903 815.51 39.3377 814.895 39.6644C814.284 39.9876 813.574 40.1491 812.765 40.1491ZM823.268 38.7322C822.916 38.7322 822.614 38.608 822.362 38.3594C822.113 38.1108 821.989 37.8089 821.989 37.4538C821.989 37.1058 822.113 36.8075 822.362 36.5589C822.614 36.3104 822.916 36.1861 823.268 36.1861C823.608 36.1861 823.907 36.3104 824.162 36.5589C824.418 36.8075 824.546 37.1058 824.546 37.4538C824.546 37.6882 824.486 37.9031 824.365 38.0984C824.248 38.2901 824.093 38.4446 823.901 38.5618C823.71 38.6754 823.498 38.7322 823.268 38.7322ZM823.268 33.3789C822.916 33.3789 822.614 33.2546 822.362 33.006C822.113 32.7575 821.989 32.4556 821.989 32.1005C821.989 31.7525 822.113 31.456 822.362 31.2109C822.614 30.9624 822.916 30.8381 823.268 30.8381C823.608 30.8381 823.907 30.9624 824.162 31.2109C824.418 31.456 824.546 31.7525 824.546 32.1005C824.546 32.3384 824.486 32.555 824.365 32.7504C824.248 32.9421 824.093 33.0948 823.901 33.2085C823.71 33.3221 823.498 33.3789 823.268 33.3789ZM829.694 38.0824V36.266L834.249 29.0909H835.815V31.6051H834.888L832.017 36.1488V36.234H838.489V38.0824H829.694ZM834.93 40V37.5284L834.973 36.7241V29.0909H837.136V40H834.93ZM844.303 40.2397C843.386 40.2362 842.598 40.0107 841.938 39.5632C841.281 39.1158 840.775 38.4677 840.42 37.619C840.068 36.7702 839.894 35.7493 839.898 34.5561C839.898 33.3665 840.073 32.3526 840.425 31.5146C840.78 30.6765 841.286 30.0391 841.943 29.6023C842.603 29.1619 843.39 28.9418 844.303 28.9418C845.215 28.9418 846 29.1619 846.657 29.6023C847.318 30.0426 847.825 30.6818 848.181 31.5199C848.536 32.3544 848.711 33.3665 848.708 34.5561C848.708 35.7528 848.53 36.7756 848.175 37.6243C847.824 38.473 847.319 39.1211 846.662 39.5685C846.005 40.016 845.219 40.2397 844.303 40.2397ZM844.303 38.3274C844.928 38.3274 845.427 38.0131 845.799 37.3846C846.172 36.756 846.357 35.8132 846.353 34.5561C846.353 33.7287 846.268 33.0398 846.098 32.4893C845.931 31.9389 845.693 31.5252 845.384 31.2482C845.079 30.9712 844.718 30.8327 844.303 30.8327C843.681 30.8327 843.184 31.1435 842.811 31.7649C842.438 32.3864 842.25 33.3168 842.247 34.5561C842.247 35.3942 842.33 36.0938 842.497 36.6548C842.667 37.2124 842.907 37.6314 843.216 37.9119C843.525 38.1889 843.887 38.3274 844.303 38.3274Z" fill="#FF0000"/>
</svg>
